# xmcd
#
# Track frame offsets:
#	150
#	17702
#	28913
#	43875
#	59337
#	76715
#	91294
#	106133
#	123860
#	143967
#	164959
#	184106
#	202192
#	220116
#	234031
#	253136
#	270093
#
# Disc length: 3838 seconds
#
# Revision: 0
# Processed by: cddbd v1.4PL0 Copyright (c) Steve Scherf et al.
# Submitted via: audiograbber 1.81.02
#
DISCID=ea0efc11
DTITLE=Various Artist - Setanejas Vol. 02
DYEAR=2002
DGENRE=Sertanejo
TTITLE0=Cezar and Paulinho - Boboca e bobão
TTITLE1=Cezar and Paulinho - Doce de paixão
TTITLE2=Cezar and Paulinho - Morto de saudade sua
TTITLE3=Gian and Giovani - Não da pra te esquecer
TTITLE4=Gian and Giovani - Olha amor
TTITLE5=Leandro and Leonardo - Cumadre e cumpadre
TTITLE6=Leandro and Leonardo - Mexe, mexe
TTITLE7=Leandro and Leonardo - Um sonhador
TTITLE8=Zezé Di Camargo and Luciano - Cada volta é um recomeço
TTITLE9=Zezé Di Camargo and Luciano - Felicidade, que saudade de você
TTITLE10=Zezé Di Camargo and Luciano - Foi a primeira vez
TTITLE11=Zezé Di Camargo and Luciano - Hoje eu quero te amar
TTITLE12=Zezé Di Camargo and Luciano - Pão de mel
TTITLE13=Zezé Di Camargo and Luciano - Por amor te deixo ir
TTITLE14=Zezé Di Camargo and Luciano - Serafim e seus filhos
TTITLE15=Zezé Di Camargo and Luciano - Toma juizo
TTITLE16=Zezé Di Camargo and Luciano - Você vai ver
EXTD=
EXTT0=
EXTT1=
EXTT2=
EXTT3=
EXTT4=
EXTT5=
EXTT6=
EXTT7=
EXTT8=
EXTT9=
EXTT10=
EXTT11=
EXTT12=
EXTT13=
EXTT14=
EXTT15=
EXTT16=
PLAYORDER=
